<?xml version="1.0" encoding="utf-8"?>
<!-- Generator: Adobe Illustrator 24.3.0, SVG Export Plug-In . SVG Version: 6.00 Build 0)  -->
<svg version="1.1" id="Layer_1" xmlns="http://www.w3.org/2000/svg" xmlns:xlink="http://www.w3.org/1999/xlink" x="0px" y="0px"
	 viewBox="0 0 199.2 69.4" style="enable-background:new 0 0 199.2 69.4;" xml:space="preserve">
<style type="text/css">
	.st0{display:none;}
	.st1{display:inline;}
	.st2{fill:#5E5F5F;}
	.st3{fill:#BA1F40;}
	.st4{fill:#1A4072;}
	.st5{fill:url(#SVGID_1_);}
	.st6{fill:none;}
	.st7{fill:#15345B;}
	.st8{font-family:'Avenir-Black';}
	.st9{font-size:15px;}
	.st10{fill:url(#SVGID_2_);}
</style>
<g id="Layer_1_1_" class="st0">
	<g class="st1">
		<path class="st2" d="M117.8,43.6L94.6,85.5H9.4c-4.3,0-7.7-3.4-7.7-7.7V9.5c0-4.3,3.4-7.7,7.7-7.7h85.2L117.8,43.6L117.8,43.6z
			 M45,62.5V25.1h-6.2v27.6h-0.1L21.6,25.1l0,0h-6.9l0,0v37.4l0,0h6.2V34.9h0.2l17,27.5L45,62.5L45,62.5L45,62.5z M58,62.5V25.1
			h-6.5v37.4H58L58,62.5L58,62.5z M94.7,25.1h-6.5l0,0V40h-17V25.1h-6.5v37.4h6.5V45.6h17v16.9l0,0h6.5V25.1L94.7,25.1z"/>
		<path class="st3" d="M100.4,85.5l23.2-41.9L100.5,1.8h5.8c3.2,0,7,2.3,8.6,5l20.3,36.8l-20.4,36.9c-1.5,2.8-5.4,5-8.6,5H100.4
			L100.4,85.5z"/>
	</g>
	<g class="st1">
		<path class="st3" d="M166,30.8l-6.9-11.1H159l0.1,11.1h-4v-17h4.7l6.8,11.1h0.1l-0.1-11.1h4v17H166z"/>
		<path class="st3" d="M186.5,30.8l-1.3-3.3h-6.6l-1.3,3.3h-4.5l7.2-17h4l7.1,17H186.5z M182,18.3l-2.2,5.9h4.3L182,18.3z"/>
		<path class="st3" d="M199,17.3v13.5h-4.1V17.3h-4.8v-3.5h13.7v3.5H199z"/>
		<path class="st3" d="M206.3,30.8v-17h4.1v17H206.3z"/>
		<path class="st3" d="M232.4,22.2c0,1.3-0.2,2.6-0.7,3.7s-1.1,2.1-1.9,2.9c-0.8,0.8-1.8,1.4-2.9,1.8c-1.1,0.4-2.4,0.7-3.7,0.7
			s-2.6-0.2-3.7-0.7c-1.1-0.4-2.1-1-2.9-1.8c-0.8-0.8-1.5-1.7-1.9-2.9c-0.5-1.1-0.7-2.3-0.7-3.7c0-1.4,0.2-2.6,0.7-3.7
			s1.1-2,1.9-2.8c0.8-0.8,1.8-1.4,2.9-1.8c1.1-0.4,2.4-0.6,3.7-0.6s2.6,0.2,3.7,0.6c1.1,0.4,2.1,1,2.9,1.8c0.8,0.8,1.5,1.7,1.9,2.8
			C232.2,19.6,232.4,20.9,232.4,22.2z M228,22.2c0-0.7-0.1-1.4-0.4-2.1c-0.2-0.6-0.6-1.2-1-1.6c-0.4-0.5-0.9-0.8-1.5-1.1
			c-0.6-0.3-1.3-0.4-2-0.4s-1.4,0.1-2,0.4s-1.1,0.6-1.5,1.1s-0.8,1-1,1.6s-0.3,1.3-0.3,2.1c0,0.8,0.1,1.5,0.4,2.1
			c0.2,0.7,0.6,1.2,1,1.7s0.9,0.8,1.5,1.1c0.6,0.3,1.3,0.4,2,0.4s1.4-0.1,2-0.4s1.1-0.6,1.5-1.1s0.8-1,1-1.7
			C227.9,23.7,228,23,228,22.2z"/>
		<path class="st3" d="M246.6,30.8l-6.9-11.1h-0.1l0.1,11.1h-4v-17h4.7l6.8,11.1h0.1l-0.1-11.1h4v17H246.6z"/>
		<path class="st3" d="M267.2,30.8l-1.3-3.3h-6.6l-1.3,3.3h-4.5l7.2-17h4l7.1,17H267.2z M262.6,18.3l-2.2,5.9h4.3L262.6,18.3z"/>
		<path class="st3" d="M274,30.8v-17h4.1v13.5h6.6v3.6H274V30.8z"/>
		<path class="st3" d="M306.4,30.5c-1.1,0.5-2.4,0.8-3.8,0.8c-1.3,0-2.5-0.2-3.6-0.7c-1.1-0.4-2.1-1-2.9-1.8s-1.5-1.7-1.9-2.9
			c-0.5-1.1-0.7-2.3-0.7-3.7c0-1.4,0.2-2.6,0.7-3.7s1.1-2.1,2-2.8c0.8-0.8,1.8-1.4,2.9-1.8c1.1-0.4,2.3-0.6,3.6-0.6
			c1.2,0,2.4,0.2,3.6,0.6c1.2,0.4,2.1,1,2.8,1.9l-2.8,2.8c-0.4-0.5-0.9-0.9-1.5-1.2c-0.6-0.3-1.3-0.4-1.9-0.4c-0.7,0-1.4,0.1-2,0.4
			s-1.1,0.6-1.6,1.1c-0.4,0.5-0.8,1-1,1.6s-0.4,1.3-0.4,2.1c0,0.8,0.1,1.5,0.4,2.1c0.2,0.6,0.6,1.2,1,1.6c0.4,0.5,0.9,0.8,1.5,1.1
			c0.6,0.3,1.2,0.4,2,0.4s1.5-0.2,2.1-0.5s1.1-0.7,1.5-1.3l2.9,2.7C308.4,29.3,307.5,30,306.4,30.5z"/>
		<path class="st3" d="M323.8,30.8l-1.3-3.3h-6.6l-1.3,3.3h-4.5l7.2-17h4l7.1,17H323.8z M319.2,18.3l-2.2,5.9h4.3L319.2,18.3z"/>
		<path class="st3" d="M341.5,30.8l-6.9-11.1h-0.1l0.1,11.1h-4v-17h4.7l6.8,11.1h0.1l-0.1-11.1h4v17H341.5z"/>
		<path class="st3" d="M362.5,30.5c-1.1,0.5-2.4,0.8-3.8,0.8c-1.3,0-2.5-0.2-3.6-0.7c-1.1-0.4-2.1-1-2.9-1.8s-1.5-1.7-1.9-2.9
			c-0.5-1.1-0.7-2.3-0.7-3.7c0-1.4,0.2-2.6,0.7-3.7s1.1-2.1,2-2.8c0.8-0.8,1.8-1.4,2.9-1.8c1.1-0.4,2.3-0.6,3.6-0.6
			c1.2,0,2.4,0.2,3.6,0.6c1.2,0.4,2.1,1,2.8,1.9l-2.8,2.8c-0.4-0.5-0.9-0.9-1.5-1.2c-0.6-0.3-1.3-0.4-1.9-0.4c-0.7,0-1.4,0.1-2,0.4
			s-1.1,0.6-1.6,1.1c-0.4,0.5-0.8,1-1,1.6s-0.4,1.3-0.4,2.1c0,0.8,0.1,1.5,0.4,2.1c0.2,0.6,0.6,1.2,1,1.6c0.4,0.5,0.9,0.8,1.5,1.1
			c0.6,0.3,1.2,0.4,2,0.4s1.5-0.2,2.1-0.5s1.1-0.7,1.5-1.3l2.9,2.7C364.5,29.3,363.6,30,362.5,30.5z"/>
		<path class="st3" d="M367.7,30.8v-17h11.5v3.5h-7.5v3.2h7.1v3.3h-7.1v3.5h7.9v3.5H367.7z"/>
		<path class="st3" d="M392.3,30.8l-3.7-6.8h-1.4v6.8h-4v-17h6.5c0.8,0,1.6,0.1,2.4,0.3s1.5,0.5,2.1,0.9s1.1,0.9,1.5,1.6
			c0.4,0.7,0.6,1.5,0.6,2.5c0,1.2-0.3,2.1-0.9,2.9s-1.5,1.3-2.6,1.7l4.5,7.3h-5V30.8z M392.1,19c0-0.4-0.1-0.7-0.3-1
			c-0.2-0.2-0.4-0.4-0.7-0.6c-0.3-0.1-0.6-0.2-0.9-0.3s-0.6-0.1-1-0.1H387v4h2c0.3,0,0.7,0,1-0.1c0.4-0.1,0.7-0.2,1-0.3
			c0.3-0.1,0.5-0.4,0.7-0.6C392,19.8,392.1,19.4,392.1,19z"/>
		<path class="st3" d="M406.6,30.8v-17h4.1v17H406.6z"/>
		<path class="st3" d="M425.8,30.8l-6.9-11.1h-0.1l0.1,11.1h-4v-17h4.7l6.8,11.1h0.1l-0.1-11.1h4v17H425.8z"/>
		<path class="st3" d="M443.7,18.2c-0.4-0.4-0.8-0.8-1.4-1.1c-0.6-0.3-1.1-0.4-1.6-0.4c-0.3,0-0.5,0-0.8,0.1c-0.3,0-0.5,0.1-0.8,0.3
			c-0.2,0.1-0.4,0.3-0.6,0.5s-0.2,0.5-0.2,0.8s0.1,0.5,0.2,0.7s0.3,0.4,0.5,0.5s0.5,0.3,0.8,0.4s0.7,0.2,1.1,0.4
			c0.6,0.2,1.2,0.4,1.8,0.6c0.6,0.2,1.2,0.5,1.7,0.9s0.9,0.9,1.3,1.4c0.3,0.6,0.5,1.3,0.5,2.1c0,1-0.2,1.8-0.5,2.5
			c-0.4,0.7-0.8,1.3-1.5,1.8c-0.6,0.5-1.3,0.8-2.1,1c-0.8,0.2-1.6,0.3-2.4,0.3c-1.2,0-2.4-0.2-3.5-0.6s-2.1-1-2.8-1.8l2.7-2.7
			c0.4,0.5,1,0.9,1.6,1.3c0.7,0.3,1.4,0.5,2,0.5c0.3,0,0.6,0,0.9-0.1s0.5-0.2,0.8-0.3c0.2-0.1,0.4-0.3,0.5-0.6
			c0.1-0.2,0.2-0.5,0.2-0.9c0-0.3-0.1-0.6-0.2-0.8c-0.2-0.2-0.4-0.4-0.7-0.6c-0.3-0.2-0.7-0.4-1.1-0.5c-0.4-0.2-0.9-0.3-1.5-0.5
			c-0.5-0.2-1.1-0.4-1.6-0.6s-1-0.5-1.4-0.9s-0.7-0.8-1-1.4c-0.2-0.5-0.4-1.2-0.4-2c0-0.9,0.2-1.8,0.6-2.4c0.4-0.7,0.9-1.2,1.5-1.7
			c0.6-0.4,1.3-0.8,2.1-1c0.8-0.2,1.6-0.3,2.4-0.3c1,0,1.9,0.2,2.9,0.5c1,0.4,1.9,0.9,2.6,1.6L443.7,18.2z"/>
		<path class="st3" d="M457.3,17.3v13.5h-4.1V17.3h-4.8v-3.5h13.7v3.5H457.3z"/>
		<path class="st3" d="M464.6,30.8v-17h4.1v17H464.6z"/>
		<path class="st3" d="M480.1,17.3v13.5H476V17.3h-4.8v-3.5h13.7v3.5H480.1z"/>
		<path class="st3" d="M501.4,27.2c-0.3,0.8-0.8,1.6-1.5,2.2c-0.6,0.6-1.4,1.1-2.3,1.4s-1.9,0.5-3,0.5s-2.1-0.2-3-0.5
			s-1.7-0.8-2.3-1.4c-0.6-0.6-1.1-1.3-1.4-2.2c-0.3-0.8-0.5-1.8-0.5-2.8V13.8h4.1v10.3c0,0.5,0.1,0.9,0.2,1.3s0.3,0.8,0.6,1.1
			c0.2,0.3,0.6,0.6,1,0.8c0.4,0.2,0.9,0.3,1.5,0.3s1.1-0.1,1.5-0.3c0.4-0.2,0.7-0.5,1-0.8s0.4-0.7,0.6-1.1c0.1-0.4,0.2-0.9,0.2-1.3
			V13.8h4.1v10.6C501.9,25.4,501.8,26.4,501.4,27.2z"/>
		<path class="st3" d="M513.3,17.3v13.5h-4.1V17.3h-4.8v-3.5h13.7v3.5H513.3z"/>
		<path class="st3" d="M520.5,30.8v-17H532v3.5h-7.5v3.2h7.1v3.3h-7.1v3.5h7.9v3.5H520.5z"/>
	</g>
	<g class="st1">
		<path class="st2" d="M171.4,71.6c-1.4,0.4-3,0.5-4.7,0.5c-1.8,0-3.4-0.3-4.9-0.8c-1.5-0.6-2.8-1.3-3.8-2.4c-1.1-1-1.9-2.2-2.5-3.7
			c-0.6-1.4-0.9-3-0.9-4.7c0-1.8,0.3-3.4,0.9-4.8c0.6-1.4,1.5-2.6,2.5-3.7c1.1-1,2.3-1.8,3.8-2.3c1.4-0.5,3-0.8,4.7-0.8
			s3.4,0.3,4.8,0.8c1.5,0.5,2.7,1.2,3.6,2.1l-3.4,3.8c-0.5-0.6-1.2-1.1-2.1-1.5c-0.8-0.4-1.8-0.6-2.9-0.6c-0.9,0-1.8,0.2-2.6,0.5
			s-1.5,0.8-2.1,1.4c-0.6,0.6-1,1.3-1.4,2.2c-0.3,0.8-0.5,1.8-0.5,2.7c0,1,0.1,1.9,0.4,2.8c0.3,0.8,0.7,1.6,1.3,2.2s1.3,1.1,2.1,1.4
			s1.8,0.5,2.9,0.5c0.6,0,1.2,0,1.8-0.1s1.1-0.2,1.6-0.5v-4h-4.2v-4.3h9.1V70C174.1,70.8,172.9,71.2,171.4,71.6z"/>
		<path class="st2" d="M195.2,64c0,0.2,0,0.4,0,0.6s0,0.4,0,0.6H184c0,0.4,0.2,0.8,0.4,1.2c0.2,0.4,0.5,0.7,0.8,0.9
			c0.3,0.3,0.7,0.5,1.1,0.6c0.4,0.1,0.9,0.2,1.3,0.2c0.8,0,1.5-0.2,2.1-0.5s1-0.7,1.4-1.2l3.5,2.2c-0.7,1.1-1.7,1.9-2.9,2.4
			c-1.2,0.6-2.6,0.9-4.1,0.9c-1.2,0-2.3-0.2-3.3-0.5c-1-0.4-1.9-0.9-2.7-1.6s-1.4-1.5-1.8-2.6c-0.4-1-0.7-2.2-0.7-3.5
			c0-1.3,0.2-2.4,0.7-3.4c0.4-1,1-1.9,1.8-2.6c0.7-0.7,1.6-1.3,2.6-1.7s2.1-0.6,3.3-0.6c1.1,0,2.2,0.2,3.1,0.6
			c1,0.4,1.8,0.9,2.5,1.7c0.7,0.7,1.2,1.6,1.6,2.6C195,61.5,195.2,62.7,195.2,64z M190.5,62c0-0.8-0.3-1.5-0.8-2.1s-1.3-0.9-2.3-0.9
			c-0.5,0-1,0.1-1.4,0.2s-0.8,0.4-1.1,0.6c-0.3,0.3-0.6,0.6-0.7,0.9c-0.2,0.4-0.3,0.7-0.3,1.1h6.6V62z"/>
		<path class="st2" d="M209.2,71.5V63c0-0.4,0-0.8-0.1-1.2s-0.2-0.7-0.4-1s-0.4-0.5-0.7-0.7s-0.7-0.3-1.1-0.3s-0.9,0.1-1.2,0.3
			s-0.6,0.4-0.9,0.7c-0.2,0.3-0.4,0.7-0.5,1.1c-0.1,0.4-0.2,0.8-0.2,1.3v8.4H199V56.1h4.9v2.1h0.1c0.2-0.3,0.4-0.7,0.7-1
			s0.7-0.6,1.1-0.8c0.4-0.2,0.8-0.4,1.3-0.6s1-0.2,1.5-0.2c1,0,1.9,0.2,2.6,0.6c0.7,0.4,1.3,0.9,1.8,1.4c0.4,0.6,0.8,1.3,1,2
			c0.2,0.8,0.3,1.5,0.3,2.3v9.6H209.2z"/>
		<path class="st2" d="M235.2,63.7c0,1.3-0.2,2.4-0.7,3.4s-1.1,1.9-1.9,2.6c-0.8,0.7-1.7,1.3-2.7,1.7c-1,0.4-2.1,0.6-3.3,0.6
			s-2.3-0.2-3.3-0.6s-2-0.9-2.7-1.7c-0.8-0.7-1.4-1.6-1.8-2.6c-0.5-1-0.7-2.2-0.7-3.4c0-1.3,0.2-2.4,0.7-3.4s1.1-1.9,1.8-2.6
			c0.8-0.7,1.7-1.2,2.7-1.6c1-0.4,2.1-0.6,3.3-0.6s2.3,0.2,3.3,0.6c1,0.4,1.9,0.9,2.7,1.6c0.8,0.7,1.4,1.6,1.9,2.6
			C235,61.3,235.2,62.5,235.2,63.7z M230.3,63.7c0-0.5-0.1-1-0.2-1.5c-0.2-0.5-0.4-0.9-0.7-1.3c-0.3-0.4-0.7-0.7-1.1-0.9
			c-0.5-0.2-1-0.3-1.6-0.3s-1.1,0.1-1.6,0.3s-0.8,0.5-1.1,0.9s-0.5,0.8-0.7,1.3s-0.2,1-0.2,1.5c0,0.5,0.1,1,0.2,1.5
			c0.2,0.5,0.4,0.9,0.7,1.3s0.7,0.7,1.1,0.9c0.5,0.2,1,0.3,1.6,0.3s1.1-0.1,1.6-0.3c0.5-0.2,0.8-0.5,1.1-0.9s0.5-0.8,0.7-1.3
			C230.2,64.7,230.3,64.2,230.3,63.7z"/>
		<path class="st2" d="M258.8,71.5V63c0-0.4,0-0.9-0.1-1.3c-0.1-0.4-0.2-0.8-0.3-1c-0.2-0.3-0.4-0.5-0.7-0.7s-0.6-0.3-1.1-0.3
			c-0.4,0-0.8,0.1-1.1,0.3s-0.6,0.4-0.8,0.7s-0.4,0.7-0.5,1.1c-0.1,0.4-0.2,0.8-0.2,1.3v8.4h-5.1v-8.8c0-0.9-0.2-1.6-0.5-2.1
			c-0.4-0.5-0.9-0.8-1.7-0.8s-1.4,0.3-1.9,1s-0.7,1.4-0.7,2.4v8.4H239V56.1h4.9v2.1h0.1c0.2-0.3,0.4-0.7,0.7-1s0.6-0.6,1-0.8
			s0.8-0.4,1.3-0.6c0.5-0.1,1-0.2,1.6-0.2c1.1,0,2.1,0.2,2.8,0.7c0.8,0.5,1.4,1.1,1.8,2c0.5-0.8,1.2-1.4,2-1.9
			c0.8-0.5,1.8-0.7,3-0.7c1.1,0,1.9,0.2,2.7,0.6c0.7,0.4,1.3,0.9,1.7,1.5c0.4,0.6,0.8,1.3,0.9,2.1c0.2,0.8,0.3,1.5,0.3,2.2v9.6h-5
			L258.8,71.5L258.8,71.5z"/>
		<path class="st2" d="M273.9,51.1c0,0.4-0.1,0.8-0.2,1.1c-0.2,0.3-0.4,0.6-0.6,0.9c-0.3,0.2-0.6,0.4-0.9,0.6s-0.7,0.2-1.1,0.2
			c-0.8,0-1.5-0.3-2.1-0.8s-0.8-1.2-0.8-2c0-0.4,0.1-0.7,0.2-1.1c0.1-0.3,0.4-0.6,0.6-0.9c0.3-0.2,0.6-0.5,0.9-0.6
			c0.4-0.2,0.7-0.2,1.1-0.2s0.8,0.1,1.1,0.2c0.4,0.1,0.7,0.3,0.9,0.6c0.3,0.2,0.5,0.5,0.6,0.9C273.8,50.4,273.9,50.7,273.9,51.1z
			 M268.4,71.5V56.1h5.1v15.5L268.4,71.5L268.4,71.5z"/>
		<path class="st2" d="M288.9,61.1c-0.3-0.4-0.7-0.7-1.2-0.9s-1-0.3-1.5-0.3s-1,0.1-1.5,0.3c-0.4,0.2-0.8,0.5-1.1,0.9
			c-0.3,0.4-0.6,0.8-0.7,1.3c-0.2,0.5-0.3,1-0.3,1.5c0,0.5,0.1,1,0.2,1.5c0.2,0.5,0.4,0.9,0.7,1.3c0.3,0.4,0.7,0.6,1.1,0.9
			c0.4,0.2,0.9,0.3,1.5,0.3c0.5,0,1-0.1,1.5-0.3c0.5-0.2,0.9-0.5,1.2-0.9l2.8,3.4c-0.6,0.6-1.5,1.1-2.5,1.5s-2.1,0.5-3.2,0.5
			c-1.2,0-2.4-0.2-3.4-0.6c-1.1-0.4-2-0.9-2.8-1.6s-1.4-1.6-1.8-2.6s-0.7-2.2-0.7-3.4c0-1.3,0.2-2.4,0.7-3.4c0.4-1,1.1-1.9,1.8-2.6
			c0.8-0.7,1.7-1.3,2.8-1.6c1.1-0.4,2.2-0.6,3.4-0.6c0.6,0,1.1,0.1,1.7,0.2c0.5,0.1,1.1,0.2,1.6,0.4s1,0.4,1.4,0.7s0.8,0.5,1.1,0.9
			L288.9,61.1z"/>
		<path class="st2" d="M323.6,60.5c0,1.9-0.4,3.6-1.1,5s-1.7,2.5-2.8,3.4c-1.2,0.9-2.5,1.6-4,2s-3,0.6-4.5,0.6H303v-22h8
			c1.6,0,3.1,0.2,4.6,0.5c1.5,0.4,2.9,1,4,1.8c1.2,0.8,2.1,2,2.9,3.4C323.3,56.7,323.6,58.4,323.6,60.5z M318.1,60.5
			c0-1.2-0.2-2.3-0.6-3.1s-0.9-1.5-1.6-2s-1.4-0.8-2.3-1s-1.7-0.3-2.7-0.3h-2.6V67h2.5c1,0,1.9-0.1,2.7-0.3c0.9-0.2,1.7-0.6,2.3-1.1
			c0.7-0.5,1.2-1.2,1.6-2C317.9,62.7,318.1,61.7,318.1,60.5z"/>
		<path class="st2" d="M327.3,58.2c0.9-0.9,2-1.5,3.2-2c1.2-0.4,2.4-0.7,3.7-0.7c1.3,0,2.4,0.2,3.3,0.5s1.6,0.8,2.2,1.5
			s1,1.5,1.2,2.5c0.3,1,0.4,2.2,0.4,3.7v7.8h-4.7v-1.6h-0.1c-0.4,0.6-1,1.1-1.8,1.5s-1.7,0.5-2.6,0.5c-0.6,0-1.3-0.1-1.9-0.2
			c-0.7-0.2-1.3-0.4-1.8-0.8s-1-0.9-1.4-1.5s-0.5-1.4-0.5-2.3c0-1.1,0.3-2,0.9-2.7c0.6-0.7,1.4-1.2,2.4-1.6c1-0.4,2-0.6,3.2-0.7
			c1.2-0.1,2.3-0.2,3.4-0.2v-0.2c0-0.8-0.3-1.3-0.8-1.7s-1.2-0.5-2-0.5c-0.7,0-1.4,0.2-2.1,0.5s-1.2,0.7-1.7,1.1L327.3,58.2z
			 M336.6,64.8H336c-0.6,0-1.1,0-1.7,0.1s-1.1,0.2-1.5,0.3c-0.4,0.1-0.8,0.4-1.1,0.6c-0.3,0.3-0.4,0.6-0.4,1.1
			c0,0.3,0.1,0.5,0.2,0.7s0.3,0.4,0.5,0.5s0.4,0.2,0.7,0.3c0.3,0.1,0.5,0.1,0.8,0.1c1,0,1.8-0.3,2.4-0.9c0.5-0.6,0.8-1.3,0.8-2.3
			L336.6,64.8L336.6,64.8z"/>
		<path class="st2" d="M350.9,59.9v5.9c0,0.7,0.1,1.3,0.4,1.6c0.3,0.4,0.8,0.5,1.5,0.5c0.2,0,0.5,0,0.8-0.1c0.3,0,0.5-0.1,0.7-0.2
			l0.1,3.7c-0.4,0.1-0.8,0.2-1.3,0.3c-0.5,0.1-1.1,0.1-1.6,0.1c-1,0-1.9-0.1-2.6-0.4s-1.3-0.6-1.7-1.1c-0.4-0.5-0.7-1.1-0.9-1.7
			c-0.2-0.7-0.3-1.4-0.3-2.3v-6.5h-2.5v-3.8h2.5V52h5v4.1h3.6v3.8C354.6,59.9,350.9,59.9,350.9,59.9z"/>
		<path class="st2" d="M357.4,58.2c0.9-0.9,2-1.5,3.2-2c1.2-0.4,2.4-0.7,3.7-0.7c1.3,0,2.4,0.2,3.3,0.5s1.6,0.8,2.2,1.5
			s1,1.5,1.2,2.5c0.3,1,0.4,2.2,0.4,3.7v7.8h-4.7v-1.6h-0.1c-0.4,0.6-1,1.1-1.8,1.5s-1.7,0.5-2.6,0.5c-0.6,0-1.3-0.1-1.9-0.2
			c-0.7-0.2-1.3-0.4-1.8-0.8s-1-0.9-1.4-1.5s-0.5-1.4-0.5-2.3c0-1.1,0.3-2,0.9-2.7c0.6-0.7,1.4-1.2,2.4-1.6c1-0.4,2-0.6,3.2-0.7
			c1.2-0.1,2.3-0.2,3.4-0.2v-0.2c0-0.8-0.3-1.3-0.8-1.7s-1.2-0.5-2-0.5c-0.7,0-1.4,0.2-2.1,0.5s-1.2,0.7-1.7,1.1L357.4,58.2z
			 M366.7,64.8H366c-0.6,0-1.1,0-1.7,0.1s-1.1,0.2-1.5,0.3c-0.4,0.1-0.8,0.4-1.1,0.6c-0.3,0.3-0.4,0.6-0.4,1.1
			c0,0.3,0.1,0.5,0.2,0.7s0.3,0.4,0.5,0.5s0.4,0.2,0.7,0.3c0.3,0.1,0.5,0.1,0.8,0.1c1,0,1.8-0.3,2.4-0.9c0.5-0.6,0.8-1.3,0.8-2.3
			L366.7,64.8L366.7,64.8z"/>
		<path class="st2" d="M400.2,71.2c-1.4,0.7-3.1,1-4.9,1c-1.7,0-3.3-0.3-4.7-0.8c-1.4-0.6-2.7-1.4-3.7-2.4c-1.1-1-1.9-2.3-2.5-3.7
			c-0.6-1.4-0.9-3-0.9-4.7c0-1.8,0.3-3.4,0.9-4.8c0.6-1.4,1.5-2.6,2.5-3.7c1.1-1,2.3-1.8,3.8-2.3c1.4-0.5,3-0.8,4.7-0.8
			c1.6,0,3.1,0.3,4.6,0.8s2.7,1.4,3.7,2.4l-3.6,3.6c-0.5-0.7-1.1-1.2-2-1.5c-0.8-0.3-1.6-0.5-2.5-0.5s-1.8,0.2-2.6,0.5
			c-0.8,0.3-1.4,0.8-2,1.4c-0.6,0.6-1,1.3-1.3,2.1s-0.5,1.7-0.5,2.7s0.2,1.9,0.5,2.7s0.7,1.5,1.3,2.1c0.5,0.6,1.2,1.1,2,1.4
			s1.6,0.5,2.5,0.5c1.1,0,2-0.2,2.8-0.6s1.4-1,1.9-1.6l3.7,3.5C402.8,69.6,401.6,70.5,400.2,71.2z"/>
		<path class="st2" d="M422.4,63.7c0,1.3-0.2,2.4-0.7,3.4s-1.1,1.9-1.9,2.6s-1.7,1.3-2.7,1.7c-1,0.4-2.1,0.6-3.3,0.6
			c-1.2,0-2.3-0.2-3.3-0.6s-2-0.9-2.7-1.7c-0.8-0.7-1.4-1.6-1.8-2.6c-0.5-1-0.7-2.2-0.7-3.4c0-1.3,0.2-2.4,0.7-3.4s1.1-1.9,1.8-2.6
			c0.8-0.7,1.7-1.2,2.7-1.6c1-0.4,2.1-0.6,3.3-0.6c1.2,0,2.3,0.2,3.3,0.6c1,0.4,1.9,0.9,2.7,1.6c0.8,0.7,1.4,1.6,1.9,2.6
			C422.2,61.3,422.4,62.5,422.4,63.7z M417.5,63.7c0-0.5-0.1-1-0.2-1.5c-0.2-0.5-0.4-0.9-0.7-1.3c-0.3-0.4-0.7-0.7-1.1-0.9
			c-0.5-0.2-1-0.3-1.6-0.3s-1.1,0.1-1.6,0.3s-0.8,0.5-1.1,0.9c-0.3,0.4-0.5,0.8-0.7,1.3s-0.2,1-0.2,1.5c0,0.5,0.1,1,0.2,1.5
			c0.2,0.5,0.4,0.9,0.7,1.3c0.3,0.4,0.7,0.7,1.1,0.9c0.5,0.2,1,0.3,1.6,0.3s1.1-0.1,1.6-0.3c0.5-0.2,0.8-0.5,1.1-0.9
			c0.3-0.4,0.5-0.8,0.7-1.3S417.5,64.2,417.5,63.7z"/>
		<path class="st2" d="M446.1,71.5V63c0-0.4,0-0.9-0.1-1.3c-0.1-0.4-0.2-0.8-0.3-1c-0.2-0.3-0.4-0.5-0.7-0.7s-0.6-0.3-1.1-0.3
			c-0.4,0-0.8,0.1-1.1,0.3c-0.3,0.2-0.6,0.4-0.8,0.7c-0.2,0.3-0.4,0.7-0.5,1.1c-0.1,0.4-0.2,0.8-0.2,1.3v8.4h-5.1v-8.8
			c0-0.9-0.2-1.6-0.5-2.1c-0.4-0.5-0.9-0.8-1.7-0.8c-0.8,0-1.4,0.3-1.9,1c-0.4,0.6-0.7,1.4-0.7,2.4v8.4h-5.1V56.1h4.9v2.1h0.1
			c0.2-0.3,0.4-0.7,0.7-1c0.3-0.3,0.6-0.6,1-0.8s0.8-0.4,1.3-0.6c0.5-0.1,1-0.2,1.6-0.2c1.1,0,2.1,0.2,2.8,0.7
			c0.8,0.5,1.4,1.1,1.8,2c0.5-0.8,1.2-1.4,2-1.9s1.8-0.7,3-0.7c1.1,0,1.9,0.2,2.7,0.6c0.7,0.4,1.3,0.9,1.7,1.5
			c0.4,0.6,0.8,1.3,0.9,2.1c0.2,0.8,0.3,1.5,0.3,2.2v9.6h-5L446.1,71.5L446.1,71.5z"/>
		<path class="st2" d="M475.4,71.5V63c0-0.4,0-0.9-0.1-1.3c-0.1-0.4-0.2-0.8-0.3-1c-0.2-0.3-0.4-0.5-0.7-0.7s-0.6-0.3-1.1-0.3
			c-0.4,0-0.8,0.1-1.1,0.3c-0.3,0.2-0.6,0.4-0.8,0.7c-0.2,0.3-0.4,0.7-0.5,1.1c-0.1,0.4-0.2,0.8-0.2,1.3v8.4h-5.1v-8.8
			c0-0.9-0.2-1.6-0.5-2.1c-0.4-0.5-0.9-0.8-1.7-0.8c-0.8,0-1.4,0.3-1.9,1c-0.4,0.6-0.7,1.4-0.7,2.4v8.4h-5.1V56.1h4.9v2.1h0.1
			c0.2-0.3,0.4-0.7,0.7-1c0.3-0.3,0.6-0.6,1-0.8s0.8-0.4,1.3-0.6c0.5-0.1,1-0.2,1.6-0.2c1.1,0,2.1,0.2,2.8,0.7
			c0.8,0.5,1.4,1.1,1.8,2c0.5-0.8,1.2-1.4,2-1.9s1.8-0.7,3-0.7c1.1,0,1.9,0.2,2.7,0.6c0.7,0.4,1.3,0.9,1.7,1.5
			c0.4,0.6,0.8,1.3,0.9,2.1c0.2,0.8,0.3,1.5,0.3,2.2v9.6h-5L475.4,71.5L475.4,71.5z"/>
		<path class="st2" d="M501.4,63.7c0,1.3-0.2,2.4-0.7,3.4s-1.1,1.9-1.9,2.6s-1.7,1.3-2.7,1.7c-1,0.4-2.1,0.6-3.3,0.6
			c-1.2,0-2.3-0.2-3.3-0.6s-2-0.9-2.7-1.7c-0.8-0.7-1.4-1.6-1.8-2.6c-0.5-1-0.7-2.2-0.7-3.4c0-1.3,0.2-2.4,0.7-3.4s1.1-1.9,1.8-2.6
			c0.8-0.7,1.7-1.2,2.7-1.6c1-0.4,2.1-0.6,3.3-0.6c1.2,0,2.3,0.2,3.3,0.6c1,0.4,1.9,0.9,2.7,1.6c0.8,0.7,1.4,1.6,1.9,2.6
			C501.1,61.3,501.4,62.5,501.4,63.7z M496.5,63.7c0-0.5-0.1-1-0.2-1.5c-0.2-0.5-0.4-0.9-0.7-1.3c-0.3-0.4-0.7-0.7-1.1-0.9
			c-0.5-0.2-1-0.3-1.6-0.3s-1.1,0.1-1.6,0.3s-0.8,0.5-1.1,0.9c-0.3,0.4-0.5,0.8-0.7,1.3s-0.2,1-0.2,1.5c0,0.5,0.1,1,0.2,1.5
			c0.2,0.5,0.4,0.9,0.7,1.3c0.3,0.4,0.7,0.7,1.1,0.9c0.5,0.2,1,0.3,1.6,0.3s1.1-0.1,1.6-0.3c0.5-0.2,0.8-0.5,1.1-0.9
			c0.3-0.4,0.5-0.8,0.7-1.3C496.4,64.7,496.5,64.2,496.5,63.7z"/>
		<path class="st2" d="M515.4,71.5V63c0-0.4,0-0.8-0.1-1.2s-0.2-0.7-0.4-1s-0.4-0.5-0.7-0.7s-0.7-0.3-1.1-0.3s-0.9,0.1-1.2,0.3
			s-0.6,0.4-0.9,0.7c-0.2,0.3-0.4,0.7-0.5,1.1c-0.1,0.4-0.2,0.8-0.2,1.3v8.4h-5.1V56.1h4.9v2.1h0.1c0.2-0.3,0.4-0.7,0.7-1
			c0.3-0.3,0.7-0.6,1.1-0.8c0.4-0.2,0.8-0.4,1.3-0.6c0.5-0.1,1-0.2,1.5-0.2c1,0,1.9,0.2,2.6,0.6c0.7,0.4,1.3,0.9,1.8,1.4
			c0.4,0.6,0.8,1.3,1,2c0.2,0.8,0.3,1.5,0.3,2.3v9.6H515.4z"/>
		<path class="st2" d="M534.1,60.6c-0.4-0.4-0.9-0.7-1.5-1s-1.1-0.4-1.8-0.4c-0.5,0-0.9,0.1-1.3,0.3c-0.4,0.2-0.6,0.5-0.6,1
			c0,0.4,0.2,0.7,0.7,0.9c0.4,0.2,1.2,0.4,2.2,0.6c0.6,0.1,1.2,0.3,1.8,0.5s1.1,0.5,1.6,0.9s0.9,0.8,1.1,1.4
			c0.3,0.5,0.4,1.2,0.4,1.9c0,1-0.2,1.8-0.6,2.5c-0.4,0.7-0.9,1.2-1.5,1.6s-1.3,0.7-2.1,0.9c-0.8,0.2-1.6,0.3-2.4,0.3
			c-1.3,0-2.5-0.2-3.7-0.6s-2.2-1-3-1.8l2.9-3c0.5,0.5,1,0.9,1.7,1.2c0.7,0.3,1.4,0.5,2.1,0.5c0.4,0,0.8-0.1,1.2-0.3
			c0.4-0.2,0.6-0.5,0.6-1s-0.2-0.8-0.7-1.1c-0.5-0.2-1.3-0.5-2.3-0.7c-0.5-0.1-1.1-0.3-1.6-0.5s-1-0.5-1.4-0.8
			c-0.4-0.4-0.8-0.8-1-1.3c-0.3-0.5-0.4-1.1-0.4-1.9c0-0.9,0.2-1.7,0.6-2.4c0.4-0.7,0.9-1.2,1.5-1.6c0.6-0.4,1.3-0.7,2.1-0.9
			s1.5-0.3,2.3-0.3c1.2,0,2.3,0.2,3.4,0.5c1.1,0.4,2,0.9,2.8,1.6L534.1,60.6z"/>
	</g>
</g>
<path class="st4" d="M50.8,13.8c-0.3-0.7-0.9-1.1-1.6-1.3l-32.8-10c-1.4-0.4-3,0.3-3.5,1.6l-9.5,27c-0.5,1.3,0.3,2.9,1.8,3.4
	l32.7,12.8c0.3,0.1,0.7,0.2,1,0.2c0.4,0,0.8-0.1,1.1-0.3c0.7-0.3,1.1-0.9,1.4-1.6L51,15.9C51.2,15.2,51.1,14.5,50.8,13.8z
	 M47.5,15.5L45.4,22l-20.3-6.7l2.1-6.2L47.5,15.5z M44.3,25.3l-6,18.5L18,36l6-17.5L44.3,25.3z M10.3,21.7l5.6-16l8,2.5l-5.6,16.4
	L10.3,21.7z M17.2,27.6l-2.4,7.1l-8-3l2.4-7L17.2,27.6z"/>
<linearGradient id="SVGID_1_" gradientUnits="userSpaceOnUse" x1="6.597" y1="36.55" x2="196.1" y2="36.55">
	<stop  offset="0" style="stop-color:#5FCAF0"/>
	<stop  offset="1" style="stop-color:#3A54A4"/>
</linearGradient>
<path class="st5" d="M78.7,31.3L78.7,31.3c2.9-0.7,4.7-3,4.7-5.9c0-5-4.1-6.6-8.5-6.6H67v26.4h8.1c8.5,0,9.6-5.6,9.6-7.3
	C84.7,34.1,82.4,31.6,78.7,31.3z M69.7,21.3h5.1c5.1,0,5.6,3.4,5.6,4.5c0,3.4-2.8,4.6-5.4,4.6h-5.4v-9.1H69.7z M74.9,42.8h-5.1V32.7
	h5.4c4.3,0,6.6,1.7,6.6,5.1C81.8,41.3,78.7,42.8,74.9,42.8z M182.3,18.2c-7.9,0-13.8,5.9-13.8,13.9S174.4,46,182.3,46
	c7.9,0,13.8-5.9,13.8-13.9C196.1,24,190.2,18.2,182.3,18.2z M182.3,43.5c-6.8,0-10.8-5.3-10.8-11.4s4.1-11.4,10.8-11.4
	c6.8,0,10.8,5.3,10.8,11.4S189.1,43.5,182.3,43.5z M145.4,18.9h20.4v2.5H157v23.9h-2.8v-24h-8.8V18.9z M95,42.8h14.1v2.5H92.3V18.9
	h16.4v2.5H95v9h12.8v2.5H95V42.8z M136.7,18.9h2.7v26.4H136l-15.7-22.6h-0.1v22.6h-2.7V18.9h3.4l15.7,22.4h0.1L136.7,18.9
	L136.7,18.9z M54.2,21.2c0.3,0.7,0.4,1.4,0.2,2.1L44.8,53c-0.2,0.7-0.7,1.2-1.4,1.6c-0.4,0.2-0.7,0.3-1.1,0.3c-0.3,0-0.7-0.1-1-0.2
	L8.5,41.9c-1.4-0.6-2.2-2.1-1.8-3.4l0.3-1l32.4,12.6c0.3,0.1,0.7,0.2,1,0.2c0.4,0,0.8-0.1,1.1-0.3c0.7-0.3,1.1-0.9,1.4-1.6l9.3-28.7
	l0.3,0.1C53.3,20.1,53.8,20.6,54.2,21.2z"/>
<rect x="154.4" y="229.4" class="st6" width="341.4" height="93.8"/>
<text transform="matrix(1 0 0 1 154.3503 285.387)" style="fill:#231F20; font-family:'Avenir-Book'; font-size:74px; letter-spacing:2;">B</text>
<text transform="matrix(1 0 0 1 204.6503 285.387)" style="fill:#231F20; font-family:'Avenir-Book'; font-size:74px; letter-spacing:6;">E</text>
<text transform="matrix(1 0 0 1 255.9503 285.387)" style="fill:#231F20; font-family:'Avenir-Book'; font-size:74px; letter-spacing:2;">NTO</text>
<rect x="458" y="30.5" class="st6" width="341.4" height="93.8"/>
<text transform="matrix(1 0 0 1 127.138 63.8074)" class="st7 st8 st9">DEMO</text>
<path class="st4" d="M667.1-5.6c-0.3-0.7-0.9-1.1-1.6-1.3l-32.8-10c-1.4-0.4-3,0.3-3.5,1.6l-9.5,27c-0.5,1.3,0.3,2.9,1.8,3.4
	l32.7,12.8c0.3,0.1,0.7,0.2,1,0.2c0.4,0,0.8-0.1,1.1-0.3c0.7-0.3,1.1-0.9,1.4-1.6l9.6-29.7C667.5-4.2,667.4-4.9,667.1-5.6z
	 M663.8-3.9l-2.1,6.5l-20.3-6.7l2.1-6.2L663.8-3.9z M660.6,5.9l-6,18.5l-20.3-7.8l6-17.5L660.6,5.9z M626.6,2.3l5.6-16l8,2.5
	l-5.6,16.4L626.6,2.3z M633.5,8.2l-2.4,7.1l-8-3l2.4-7L633.5,8.2z"/>
<linearGradient id="SVGID_2_" gradientUnits="userSpaceOnUse" x1="622.8964" y1="17.1926" x2="812.3993" y2="17.1926">
	<stop  offset="0" style="stop-color:#5FCAF0"/>
	<stop  offset="1" style="stop-color:#3A54A4"/>
</linearGradient>
<path class="st10" d="M695,11.9L695,11.9c2.9-0.7,4.7-3,4.7-5.9c0-5-4.1-6.6-8.5-6.6h-7.9v26.4h8.1c8.5,0,9.6-5.6,9.6-7.3
	C701,14.7,698.7,12.2,695,11.9z M686,1.9h5.1c5.1,0,5.6,3.4,5.6,4.5c0,3.4-2.8,4.6-5.4,4.6h-5.4L686,1.9L686,1.9z M691.2,23.4h-5.1
	V13.3h5.4c4.3,0,6.6,1.7,6.6,5.1C698.1,21.9,695,23.4,691.2,23.4z M798.6-1.2c-7.9,0-13.8,5.9-13.8,13.9s5.9,13.9,13.8,13.9
	c7.9,0,13.8-5.9,13.8-13.9C812.4,4.6,806.5-1.2,798.6-1.2z M798.6,24.1c-6.8,0-10.8-5.3-10.8-11.4s4.1-11.4,10.8-11.4
	c6.8,0,10.8,5.3,10.8,11.4S805.4,24.1,798.6,24.1z M761.7-0.5h20.4V2h-8.8v23.9h-2.8v-24h-8.8V-0.5L761.7-0.5z M711.3,23.4h14.1v2.5
	h-16.8V-0.5H725V2h-13.7v9h12.8v2.5h-12.8V23.4z M753-0.5h2.7v26.4h-3.4L736.6,3.3h-0.1v22.6h-2.7V-0.5h3.4l15.7,22.4h0.1V-0.5
	L753-0.5z M670.5,1.8c0.3,0.7,0.4,1.4,0.2,2.1l-9.6,29.7c-0.2,0.7-0.7,1.2-1.4,1.6c-0.4,0.2-0.7,0.3-1.1,0.3c-0.3,0-0.7-0.1-1-0.2
	l-32.8-12.8c-1.4-0.6-2.2-2.1-1.8-3.4l0.3-1l32.4,12.6c0.3,0.1,0.7,0.2,1,0.2c0.4,0,0.8-0.1,1.1-0.3c0.7-0.3,1.1-0.9,1.4-1.6
	l9.3-28.7l0.3,0.1C669.6,0.7,670.1,1.2,670.5,1.8z"/>
<rect x="738.3" y="41" class="st6" width="341.4" height="93.8"/>
<text transform="matrix(1 0 0 1 738.3214 55.4478)" class="st7 st8" style="font-size:19px;">DEMO</text>
<rect x="683" y="33.4" class="st7" width="129.4" height="1"/>
</svg>
