<?xml version="1.0" encoding="utf-8"?>
<!-- Generator: Adobe Illustrator 24.3.0, SVG Export Plug-In . SVG Version: 6.00 Build 0)  -->
<svg version="1.1" xmlns="http://www.w3.org/2000/svg" xmlns:xlink="http://www.w3.org/1999/xlink" x="0px" y="0px"
	 viewBox="0 0 107 107" style="enable-background:new 0 0 107 107;" xml:space="preserve">
<style type="text/css">
	.st0{fill:url(#SVGID_1_);}
	.st1{fill:#FFFFFF;}
	.st2{display:none;}
	.st3{display:inline;}
	.st4{fill:#00B0B9;}
	.st5{fill:#652D90;}
	.st6{fill:#FFFFFF;stroke:#FFFFFF;stroke-width:0.5;stroke-miterlimit:10;}
	.st7{fill:#1B75BB;}
	.st8{fill:#FFFFFF;stroke:#1B75BB;stroke-width:0.5;stroke-miterlimit:10;}
	.st9{fill:#E97C32;}
</style>
<g id="Layer_1">
	
		<radialGradient id="SVGID_1_" cx="53.4263" cy="529.4405" r="52.1" gradientTransform="matrix(1 0 0 -1 0 583)" gradientUnits="userSpaceOnUse">
		<stop  offset="0.3914" style="stop-color:#010101"/>
		<stop  offset="0.4081" style="stop-color:#090909;stop-opacity:0.9835"/>
		<stop  offset="0.5339" style="stop-color:#494949;stop-opacity:0.8208"/>
		<stop  offset="0.5919" style="stop-color:#818181;stop-opacity:0.6604"/>
		<stop  offset="0.7442" style="stop-color:#9C9C9C;stop-opacity:0.5589"/>
		<stop  offset="0.9044" style="stop-color:#FAFBFC;stop-opacity:9.921336e-02"/>
		<stop  offset="1" style="stop-color:#FFFFFF;stop-opacity:0"/>
	</radialGradient>
	<ellipse class="st0" cx="53.4" cy="53.6" rx="52.1" ry="52.1"/>
	<g>
		<g>
			<circle class="st1" cx="53.4" cy="53.6" r="41.5"/>
		</g>
	</g>
</g>
<g id="Layer_2" class="st2">
	<g class="st3">
		<g>
			<circle class="st4" cx="53.4" cy="53.6" r="38.1"/>
		</g>
		<g transform="translate(0,-952.36218)">
			<path class="st1" d="M28.3,986c-0.6,0-1.1,0.5-1.1,1.1s0.5,1.1,1.1,1.1h6.6l5.7,26.7c-0.1,0.6,0.5,1.2,1.1,1.2h26.8
				c0.6,0,1.1-0.5,1.1-1.1s-0.5-1.1-1.1-1.1h-26l-0.9-4.3h29c0.5,0,0.9-0.4,1-0.8l3.8-16.1c0.1-0.6-0.4-1.3-1-1.3H37.9l-1-4.5
				c-0.1-0.5-0.6-0.8-1.1-0.8h-7.5V986z M38.3,993.6h34.8l-3.3,14H41.3L38.3,993.6z M47.1,1019.3c-2.7,0-4.8,2.2-4.8,4.8
				s2.2,4.8,4.8,4.8c2.7,0,4.8-2.2,4.8-4.8C52,1021.5,49.8,1019.3,47.1,1019.3z M63.2,1019.3c-2.7,0-4.8,2.2-4.8,4.8
				s2.2,4.8,4.8,4.8c2.7,0,4.8-2.2,4.8-4.8C68.1,1021.5,65.9,1019.3,63.2,1019.3z M47.1,1021.5c1.5,0,2.7,1.2,2.7,2.7
				c0,1.5-1.2,2.7-2.7,2.7s-2.7-1.2-2.7-2.7C44.4,1022.6,45.6,1021.5,47.1,1021.5z M63.2,1021.5c1.5,0,2.7,1.2,2.7,2.7
				c0,1.5-1.2,2.7-2.7,2.7c-1.5,0-2.7-1.2-2.7-2.7C60.5,1022.6,61.7,1021.5,63.2,1021.5z"/>
		</g>
	</g>
</g>
<g id="Layer_3">
	<g>
		<g>
			<circle class="st5" cx="53.4" cy="53.6" r="38.2"/>
		</g>
		<g>
			<g>
				<path class="st6" d="M31.9,69.5h-1.6v-33c0-2.3,1.9-4.2,4.2-4.2h3.3v34.6h-3.3c-0.7,0-1.4,0.3-1.9,0.8
					C32.2,68.2,31.9,68.8,31.9,69.5z M34.5,33.9c-1.5,0-2.6,1.2-2.6,2.6v29.7c0.8-0.6,1.7-0.9,2.6-0.9h1.7V33.9H34.5z"/>
				<path class="st6" d="M72.3,73.8H34.5c-2.3,0-4.2-1.9-4.2-4.2c0-1.1,0.4-2.2,1.2-3c0.8-0.8,1.9-1.2,3-1.2h1.7V39.1h34.3v26.2h1.7
					c2.3,0,4.2,1.9,4.2,4.2C76.6,71.9,74.7,73.8,72.3,73.8z M34.5,66.9c-0.7,0-1.4,0.3-1.9,0.8c-0.5,0.5-0.8,1.2-0.8,1.9
					c0,1.5,1.2,2.6,2.6,2.6h37.8c1.5,0,2.6-1.2,2.6-2.6c0-1.5-1.2-2.6-2.6-2.6H69V40.7H37.9v26.2H34.5z"/>
				<path class="st6" d="M76.6,69.5H75c0-1.5-1.2-2.6-2.6-2.6H69V32.3h3.3c2.3,0,4.2,1.9,4.2,4.2V69.5z M70.6,65.3h1.7
					c1,0,1.9,0.3,2.6,0.9V36.5c0-1.5-1.2-2.6-2.6-2.6h-1.7V65.3z"/>
			</g>
			<path class="st1" d="M57,59.8H44v-13h13V59.8z M45.6,58.2h9.8v-9.8h-9.8V58.2z"/>
			<g>
				<g>
					<rect x="56.2" y="52.6" class="st1" width="0.8" height="1.6"/>
					<rect x="58.4" y="52.6" class="st1" width="1.4" height="1.6"/>
					<rect x="61.3" y="52.6" class="st1" width="1.6" height="1.6"/>
					<path class="st1" d="M62.9,62.7h-1.6v-1.4h1.6V62.7z M62.9,59.9h-1.6v-1.4h1.6V59.9z M62.9,57h-1.6v-1.4h1.6V57z"/>
					<rect x="61.3" y="64.1" class="st1" width="1.6" height="1.6"/>
					<path class="st1" d="M59.9,65.7h-1.4v-1.6h1.4V65.7z M57,65.7h-1.4v-1.6H57V65.7z M54.2,65.7h-1.4v-1.6h1.4V65.7z"/>
					<rect x="49.8" y="64.1" class="st1" width="1.6" height="1.6"/>
					<rect x="49.8" y="61.3" class="st1" width="1.6" height="1.4"/>
					<rect x="49.8" y="59" class="st1" width="1.6" height="0.8"/>
				</g>
			</g>
		</g>
	</g>
</g>
<g id="Layer_4" class="st2">
	<g class="st3">
		<g>
			<circle class="st7" cx="53.4" cy="53.6" r="38.1"/>
		</g>
		<g>
			<path class="st8" d="M41.1,33.3c-1,0-1.8,0.8-1.8,1.8V64c0,1,0.8,1.8,1.8,1.8h32.5c1,0,1.8-0.8,1.8-1.8V42.4c0-1-0.8-1.8-1.8-1.8
				H57.2l-3.6-6.3c-0.3-0.6-0.9-0.9-1.6-0.9H41.1z M42.9,37h8l3.6,6.3c0.3,0.6,0.9,0.9,1.6,0.9h15.7v18.1H42.9V37z"/>
			<path class="st8" d="M33.9,40.6c-1,0-1.8,0.8-1.8,1.8v28.9c0,1,0.8,1.8,1.8,1.8h32.5c1,0,1.8-0.8,1.8-1.8c0-1-0.8-1.8-1.8-1.8
				H35.7V42.4C35.7,41.4,34.9,40.6,33.9,40.6z"/>
		</g>
	</g>
</g>
<g id="Layer_5" class="st2">
	<g class="st3">
		<g>
			<circle class="st9" cx="53.4" cy="53.6" r="38.2"/>
		</g>
		<g>
			<path class="st1" d="M33.8,32.6H33v0.8v1.6v40.3h19V32.6H35.1H33.8z M49.9,34.9v38H35.1v-38H49.9L49.9,34.9z"/>
			<circle class="st1" cx="42.5" cy="65.2" r="3.3"/>
			<path class="st1" d="M57,32.6h-1.3h-0.8v0.8v1.6v40.3h19V32.6H57z M71.7,72.9H57v-38h14.7h0V72.9z"/>
			<circle class="st1" cx="64.4" cy="65.2" r="3.3"/>
		</g>
	</g>
</g>
</svg>
